<?xml version="1.0" encoding="utf-8"?>
<!-- Generator: Adobe Illustrator 23.1.0, SVG Export Plug-In . SVG Version: 6.00 Build 0)  -->
<svg version="1.1" id="Layer_1" xmlns="http://www.w3.org/2000/svg" xmlns:xlink="http://www.w3.org/1999/xlink" x="0px" y="0px"
	 viewBox="0 0 612 792" style="enable-background:new 0 0 612 792;" xml:space="preserve">
<style type="text/css">
	
		.st0{fill-rule:evenodd;clip-rule:evenodd;fill:none;stroke:#000000;stroke-width:2.9999;stroke-linecap:round;stroke-linejoin:round;stroke-miterlimit:22.9256;}
</style>
<path class="st0" d="M356.2,88.2l0.3,1.4c1.6,7.5,3.6,12.9,16.4,20.8c12.8,7.8,36.2,18.1,58.3,26.6c22.1,8.5,42.7,15.3,53.4,20.1
	c10.7,4.7,11.5,7.4,20.4,46.9c8.9,39.5,25.9,115.7,38.8,173.1c12.9,57.5,21.7,96.2,26.6,121.4c4.9,25.2,5.9,36.9,5.4,57.1
	c-0.5,20.2-2.6,48.9-5.7,72.8c-3.1,23.9-7.2,42.9-12.4,58.2c-5.2,15.3-11.4,27-21.2,34.6c-9.8,7.5-23.2,11-51.1,17
	c-27.9,6-70.2,14.7-95.9,16.6c-25.7,1.9-34.9-2.8-46.8-9c-11.9-6.2-26.7-13.9-41.4-13.1c-14.8,0.8-29.6,10-39.6,16.2
	c-10,6.2-15.2,9.4-46.1,5.3c-31-4.2-87.7-15.8-117.9-23.5c-30.2-7.7-33.8-11.6-40-28.7c-6.2-17-15-47.2-19.1-75.5
	c-4.1-28.2-3.6-54.5,3.1-123c6.7-68.4,19.6-179,29.9-236.9c10.3-58,18.1-63.3,43.9-80.1c25.8-16.8,69.7-45.1,94.6-62.2
	c24.9-17.2,31-23.2,34.1-30.8c0.7-1.6,1.2-3.4,1.7-5.1c-4.7-2.4-7.9-7.1-7.9-12.5V50.2c0-7.8,6.8-14.2,15.1-14.2h95.7
	c8.3,0,15.1,6.4,15.1,14.2v25.7C363.9,81.1,360.8,85.7,356.2,88.2L356.2,88.2z M427.8,186.5c10.5,1.7,19.5,7.8,26.3,22.5
	c6.8,14.7,11.5,38.1,15.9,65.3c4.4,27.2,8.5,58.1,5.8,77.8c-2.7,19.7-12.3,28.2-19.7,31.9c-7.5,3.7-12.9,2.4-19-10.6
	c-6.1-13-12.8-37.9-19.7-67.8c-7-30-14.2-65-18.2-85.1c-4-20.1-4.8-25.2,0.8-29.1C405.4,187.5,417.3,184.8,427.8,186.5z"/>
</svg>
